Coordinates
version=1
nRows=10
nColumns=40
inDegrees=yes

Units are S.I. units (second, meters, Newtons, ...)
Angles are in degrees.

endheader
time	pelvis_tilt	pelvis_list	pelvis_rotation	pelvis_tx	pelvis_ty	pelvis_tz	hip_flexion_r	hip_adduction_r	hip_rotation_r	knee_angle_r	knee_angle_r_beta	ankle_angle_r	subtalar_angle_r	mtp_angle_r	hip_flexion_l	hip_adduction_l	hip_rotation_l	knee_angle_l	knee_angle_l_beta	ankle_angle_l	subtalar_angle_l	mtp_angle_l	lumbar_extension	lumbar_bending	lumbar_rotation	arm_flex_r	arm_add_r	arm_rot_r	elbow_flex_r	pro_sup_r	wrist_flex_r	wrist_dev_r	arm_flex_l	arm_add_l	arm_rot_l	elbow_flex_l	pro_sup_l	wrist_flex_l	wrist_dev_l
     47.12000000	     -2.03845557	     -5.44790079	      2.40308764	      0.97704495	      0.91469009	      0.52603976	     15.90498837	      5.04872070	    -11.06631191	     28.75219554	     28.75219554	     16.21781943	    -10.43065811	     -1.70006953	     26.80296847	    -14.09042704	      0.87770463	     62.97130890	     62.97130890	     18.59888174	    -19.57353061	     22.34204520	    -11.93089107	      7.41584856	      0.60911503	     13.64811330	    -13.70649890	    -11.95117027	     27.75876644	     46.76669236	      0.00000000	      0.00000000	     11.00053238	     -9.36723849	     -6.21708821	     42.46369983	     46.70086295	      0.00000000	      0.00000000
     47.14057143	     -1.83698331	     -5.33541968	      3.23622520	      0.97517458	      0.91407358	      0.52641554	     15.60039513	      5.01470864	    -11.14993401	     29.11954709	     29.11954709	     16.59395999	    -11.52405803	     -1.42139875	     28.34540975	    -13.57575208	      1.28869718	     61.96166490	     61.96166490	     18.97014426	    -19.58711932	     22.78729117	    -12.08812147	      7.25820706	      0.58273951	     16.10192047	    -13.67105161	    -11.98953101	     29.06193548	     46.72857198	      0.00000000	      0.00000000	      9.22510507	     -8.79805636	     -5.12419772	     39.39396135	     46.53741743	      0.00000000	      0.00000000
     47.16114286	     -1.73762452	     -5.19887978	      4.01500387	      0.97317198	      0.91375257	      0.52656691	     15.32149031	      4.92898967	    -11.29942740	     29.34784618	     29.34784618	     17.09394044	    -12.24964705	     -0.63160667	     29.71687522	    -12.94534161	      1.64362433	     60.22234934	     60.22234934	     19.19471149	    -19.58273567	     23.08446912	    -12.14317210	      7.05882721	      1.41948736	     17.86500739	    -14.09029309	    -12.15441621	     31.01080417	     46.64293899	      0.00000000	      0.00000000	      8.68834026	     -8.10315310	     -2.43654940	     34.20345619	     46.18014969	      0.00000000	      0.00000000
     47.18171429	     -1.75564190	     -5.01088366	      4.76597085	      0.97107196	      0.91373109	      0.52646673	     15.01319229	      4.74569866	    -11.59099926	     29.28565792	     29.28565792	     17.29328860	    -12.73992034	     -0.53696143	     30.89363289	    -12.16768415	      1.96410346	     57.78594331	     57.78594331	     19.17240267	    -19.55870732	     22.96973856	    -12.15188130	      6.74544160	      1.66101458	     20.25003468	    -14.25844194	    -12.23060001	     32.50172646	     46.60178315	      0.00000000	      0.00000000	      6.56573305	     -7.56223515	     -2.07919410	     32.86766092	     46.09769979	      0.00000000	      0.00000000
     47.20228571	     -1.83237903	     -4.77285716	      5.51809580	      0.96889881	      0.91415700	      0.52609966	     14.63630743	      4.50633526	    -11.89177148	     28.99071331	     28.99071331	     17.43462110	    -13.18435293	     -0.33390484	     31.79234720	    -11.27600219	      2.24820710	     54.68859510	     54.68859510	     18.80763120	    -19.51049682	     22.51252566	    -12.12278297	      6.39709929	      0.88271373	     23.04756508	    -13.74129328	    -12.25670908	     34.92244889	     46.51729148	      0.00000000	      0.00000000	      4.32068785	     -7.40284936	     -1.47212105	     30.61302231	     45.97644186	      0.00000000	      0.00000000
     47.22285714	     -2.02317411	     -4.57822620	      6.20244206	      0.96663083	      0.91485160	      0.52551603	     14.25430835	      4.26517342	    -12.34667342	     28.45954066	     28.45954066	     17.50095904	    -13.23165202	     -0.17862651	     32.51379956	    -10.33415861	      2.64700034	     51.12103080	     51.12103080	     18.16331694	    -19.43218036	     21.57455298	    -11.98206084	      6.07053422	      0.73973057	     25.51711914	    -13.64836382	    -12.20748883	     37.46401104	     46.42082496	      0.00000000	      0.00000000	      2.43730702	     -7.08381896	     -0.79792537	     28.54246748	     45.84606566	      0.00000000	      0.00000000
     47.24342857	     -2.35156559	     -4.37496788	      6.80096657	      0.96436908	      0.91583615	      0.52479490	     13.86769996	      3.98978095	    -12.87303886	     27.66664083	     27.66664083	     17.44440860	    -12.97953743	     -0.25721839	     32.90603846	     -9.45311228	      2.86540674	     46.81923415	     46.81923415	     16.17938279	    -19.29896912	     17.64218919	    -11.76930012	      5.71515286	      1.53763948	     26.58749283	    -14.48078353	    -11.64688948	     42.27587113	     46.17692575	      0.00000000	      0.00000000	      1.38636146	     -6.74546252	      1.10906316	     25.91329479	     45.52321487	      0.00000000	      0.00000000
     47.26400000	     -2.72179315	     -4.11126229	      7.34167036	      0.96212760	      0.91722544	      0.52381536	     13.37237962	      3.68097677	    -13.30384658	     26.60810266	     26.60810266	     17.32637202	    -12.71217472	     -0.12253521	     33.13800747	     -8.35760739	      3.44603789	     42.48160885	     42.48160885	     15.39434609	    -19.00735041	     17.61403785	    -11.46616810	      5.24884245	      1.60256206	     29.13709312	    -14.59446918	    -11.63942007	     44.20877070	     46.11466230	      0.00000000	      0.00000000	     -0.54859011	     -6.60042161	      1.41428355	     25.00832919	     45.43716927	      0.00000000	      0.00000000
     47.28457143	     -3.24896897	     -3.91873401	      7.79529221	      0.95988640	      0.91846386	      0.52267473	     12.99556735	      3.41904629	    -13.76549274	     25.43862043	     25.43862043	     17.15332285	    -12.27187600	     -0.02439878	     33.34156022	     -7.43199216	      3.94776384	     38.08701264	     38.08701264	     14.59184556	    -18.18961004	     17.38209586	    -11.02316790	      4.81476962	      1.77899025	     31.73282604	    -14.87346378	    -11.62499697	     46.16673786	     46.05343377	      0.00000000	      0.00000000	     -2.33062648	     -6.37777688	      1.64977321	     24.33692755	     45.36256269	      0.00000000	      0.00000000
     47.30514286	     -3.45733618	     -3.83406945	      8.27097432	      0.95819377	      0.91999350	      0.52133091	     12.07570585	      3.26515188	    -14.62552093	     23.95521534	     23.95521534	     16.63870049	    -11.28612670	     -1.44507603	     32.65529106	     -6.87038172	      4.16458889	     32.90572054	     32.90572054	     10.80558401	    -17.42807462	      9.13251086	    -11.03717421	      4.64556417	      1.87461641	     33.04550327	    -15.48687661	    -10.26123386	     52.29743458	     45.75161770	      0.00000000	      0.00000000	     -4.61683989	     -6.72136093	      3.79280716	     25.09556725	     44.91641849	      0.00000000	      0.00000000
